<svg width="169" height="169" viewBox="0 0 169 169" fill="none" xmlns="http://www.w3.org/2000/svg" transform="scale(0.6)">
<path fill-rule="evenodd" clip-rule="evenodd" d="M118.3 84.5001C118.3 88.9424 114.514 92.5477 109.85 92.5477H92.95V108.643C92.95 113.085 89.1644 116.691 84.5 116.691C79.8356 116.691 76.05 113.085 76.05 108.643V92.5477H59.15C54.4856 92.5477 50.7 88.9424 50.7 84.5001C50.7 80.0578 54.4856 76.4525 59.15 76.4525H76.05V60.3573C76.05 55.915 79.8356 52.3096 84.5 52.3096C89.1644 52.3096 92.95 55.915 92.95 60.3573V76.4525H109.85C114.514 76.4525 118.3 80.0578 118.3 84.5001ZM84.5 148.881C47.2271 148.881 16.9 119.998 16.9 84.5001C16.9 49.0021 47.2271 20.1192 84.5 20.1192C121.773 20.1192 152.1 49.0021 152.1 84.5001C152.1 119.998 121.773 148.881 84.5 148.881ZM84.5 4.02393C37.8307 4.02393 0 40.0531 0 84.5001C0 128.947 37.8307 164.976 84.5 164.976C131.169 164.976 169 128.947 169 84.5001C169 40.0531 131.169 4.02393 84.5 4.02393Z" fill="#808080" fill-opacity="0.471"></path>
</svg>